<?xml version="1.0" encoding="utf-8"?>
<!-- Generator: Adobe Illustrator 19.1.0, SVG Export Plug-In . SVG Version: 6.00 Build 0)  -->
<svg version="1.1" id="Layer_1" xmlns="http://www.w3.org/2000/svg" xmlns:xlink="http://www.w3.org/1999/xlink" x="0px" y="0px"
	 viewBox="-224 315 163 163" style="enable-background:new -224 315 163 163;" xml:space="preserve">
<style type="text/css">
	.st0{fill:#FFFFFF;}
</style>
<g>
	<polygon class="st0" points="-93.6,402.4 -93,401.4 -93,390.1 -93.6,388.5 -128.1,388.5 -129.1,390.1 -129.1,401.4 -128.1,402.4 	
		"/>
	<polygon class="st0" points="-157.1,403.4 -155.8,401.8 -155.8,390.5 -157.1,389.5 -191.6,389.5 -193.1,390.5 -193.1,401.8 
		-191.6,403.4 	"/>
	<path class="st0" d="M-142.3,315h-0.4c-44.9,0-81.3,36.4-81.3,81.3v0.4c0,44.9,36.4,81.3,81.3,81.3h0.4c44.9,0,81.3-36.4,81.3-81.3
		v-0.4C-61,351.4-97.4,315-142.3,315z M-146.2,435.4h-9.6v-9.6h9.6V435.4z M-146.2,411.9h-56.5v-32h56.5V411.9z M-138.8,356.5h9.6
		v9.6h-9.6V356.5z M-82.3,411.9h-56.5v-32h56.5V411.9z"/>
</g>
</svg>
