<?xml version="1.0" encoding="utf-8"?>
<!-- Generator: Adobe Illustrator 19.1.0, SVG Export Plug-In . SVG Version: 6.00 Build 0)  -->
<svg version="1.1" id="Layer_1" xmlns="http://www.w3.org/2000/svg" xmlns:xlink="http://www.w3.org/1999/xlink" x="0px" y="0px"
	 viewBox="-224 315 163 163" style="enable-background:new -224 315 163 163;" xml:space="preserve">
<style type="text/css">
	.st0{fill:#FFFFFF;}
</style>
<path class="st0" d="M-142.3,315h-0.4c-44.9,0-81.3,36.4-81.3,81.3v0.4c0,44.9,36.4,81.3,81.3,81.3h0.4c44.9,0,81.3-36.4,81.3-81.3
	v-0.4C-61,351.4-97.4,315-142.3,315z M-171.8,432.2h-11.7V397h11.7V432.2z M-171.8,385.3h-11.7v-24.5h11.7V385.3z M-148.4,432.2
	h-11.7v-71.4h11.7V432.2z M-124.9,432.2h-11.7v-71.4h11.7V432.2z M-101.5,432.2h-11.7v-23.4h11.7V432.2z M-101.5,397h-11.7v-36.2
	h11.7V397z"/>
</svg>
