<?xml version="1.0" encoding="utf-8"?>
<!-- Generator: Adobe Illustrator 19.1.0, SVG Export Plug-In . SVG Version: 6.00 Build 0)  -->
<svg version="1.1" id="Layer_1" xmlns="http://www.w3.org/2000/svg" xmlns:xlink="http://www.w3.org/1999/xlink" x="0px" y="0px"
	 viewBox="-224 315 163 163" style="enable-background:new -224 315 163 163;" xml:space="preserve">
<style type="text/css">
	.st0{fill:none;stroke:#FFFFFF;stroke-width:10;stroke-miterlimit:10;}
	.st1{fill:#FFFFFF;}
</style>
<g>
	<path class="st0" d="M-66,396.7c0,42.1-34.2,76.3-76.3,76.3h-0.4c-42.1,0-76.3-34.2-76.3-76.3v-0.4c0-42.1,34.2-76.3,76.3-76.3h0.4
		c42.1,0,76.3,34.2,76.3,76.3V396.7z"/>
	<g>
		<g>
			<path class="st1" d="M-181,386v-23h11v23H-181z M-181,430v-33h11v33H-181z M-159,430v-67h11v67H-159z"/>
		</g>
		<g>
			<path class="st1" d="M-104,408v22h-11v-22H-104z M-104,363v34h-11v-34H-104z M-126,363v67h-11v-67H-126z"/>
		</g>
	</g>
</g>
</svg>
